<svg xmlns="http://www.w3.org/2000/svg" viewBox="0 0 37 45" fill="none">
  <defs>
    <linearGradient id="eattyNoImgGrad" x1="18.5" y1="0" x2="18.5" y2="45" gradientUnits="userSpaceOnUse">
      <stop stop-color="#D5DDE7"/>
      <stop offset="1" stop-color="#C3CEDD"/>
    </linearGradient>
  </defs>
  <path d="M29 4c1 0 1.8.8 1.9 1.8l.9 10.7c.1 2.5-1.9 4.6-4.5 4.6h-.2l.5 17c.1 1.3-1 2.3-2.3 2.3s-2.3-1-2.3-2.3l.5-17c-2.5-.1-4.5-2.1-4.4-4.6l.9-10.7C19.2 4.8 20 4 21 4c1 0 1.7.7 1.8 1.7l.7 10c0 .5.4.9.9.9s.9-.4.9-.9l-.6-10c0-1 .8-1.9 1.8-1.9s1.8.8 1.8 1.9l-.5 10c0 .5.4.9.9.9s.9-.4.9-.9l.7-10C27.2 4.7 28 4 29 4z" fill="url(#eattyNoImgGrad)"/>
  <path d="M10.6 4c3.9 0 6.9 3.4 6.5 7.3l-.5 5c-.3 2.6-2.1 4.6-4.5 5.3l.5 17c.1 1.3-1 2.3-2.3 2.3s-2.3-1-2.3-2.3l.5-17c-2.4-.7-4.2-2.7-4.5-5.3l-.5-5C3.7 7.4 6.7 4 10.6 4z" fill="url(#eattyNoImgGrad)"/>
</svg>
